M48
;GenerationSoftware,Autodesk,EAGLE,9.6.2*%
;CreationDate,2021-06-10T21:33:36Z*%
FMAT,2
ICI,OFF
METRIC,TZ,000.000
T9C0.550
T8C0.813
T7C0.850
T6C0.900
T5C1.000
T4C1.016
T3C1.500
T2C3.175
%
G90
M71
T2
X97460Y77470
X97460Y96520
X2540Y77470
X2540Y96520
T3
X2159Y65842
X2159Y72842
T4
X49530Y13970
X52070Y16510
X52070Y13970
X52070Y11430
X52070Y8890
X52070Y6350
X52070Y3810
X49530Y21590
X49530Y19050
X49530Y16510
X52070Y21590
X49530Y11430
X49530Y8890
X49530Y6350
X49530Y3810
X90170Y64770
X90170Y67310
X90170Y69850
X57150Y3810
X59690Y8890
X59690Y6350
X59690Y3810
X57150Y21590
X57150Y19050
X57150Y16510
X57150Y13970
X57150Y11430
X57150Y8890
X57150Y6350
X52070Y19050
X54610Y21590
X54610Y19050
X54610Y16510
X54610Y13970
X54610Y11430
X54610Y8890
X54610Y6350
X54610Y3810
X74930Y57150
X30480Y5080
X30480Y30480
X30480Y27940
X30480Y25400
X30480Y22860
X30480Y20320
X30480Y17780
X30480Y15240
X30480Y12700
X30480Y10160
X30480Y7620
X27940Y30480
X44450Y85090
X44450Y82550
X44450Y90170
X44450Y87630
X57150Y95250
X57150Y92710
X57150Y90170
X57150Y87630
X57150Y85090
X27940Y5080
X74930Y54610
X59690Y19050
X74930Y59690
X74930Y62230
X74930Y64770
X74930Y67310
X25400Y22860
X24130Y10160
X33020Y25400
X74930Y52070
X27940Y7620
X27940Y10160
X27940Y12700
X27940Y15240
X27940Y17780
X27940Y20320
X27940Y22860
X27940Y25400
X27940Y27940
X80010Y11430
X77470Y8890
X77470Y11430
X77470Y13970
X77470Y16510
X77470Y19050
X77470Y21590
X80010Y3810
X80010Y6350
X80010Y8890
X77470Y6350
X80010Y13970
X80010Y16510
X80010Y19050
X80010Y21590
X73660Y21590
X73660Y19050
X73660Y16510
X73660Y13970
X73660Y11430
X43180Y3810
X60960Y54610
X5080Y7620
X43180Y21590
X43180Y19050
X43180Y16510
X43180Y13970
X43180Y11430
X43180Y8890
X43180Y6350
X73660Y8890
X45720Y3810
X45720Y6350
X45720Y8890
X45720Y11430
X45720Y13970
X45720Y16510
X45720Y19050
X45720Y21590
X77470Y3810
X63500Y16510
X66040Y19050
X66040Y16510
X66040Y13970
X66040Y11430
X66040Y8890
X66040Y6350
X66040Y3810
X63500Y21590
X63500Y19050
X66040Y21590
X63500Y13970
X63500Y11430
X63500Y8890
X63500Y6350
X63500Y3810
X59690Y21590
X57150Y80010
X59690Y16510
X59690Y13970
X71120Y3810
X73660Y6350
X73660Y3810
X71120Y21590
X71120Y19050
X71120Y16510
X71120Y13970
X71120Y11430
X71120Y8890
X71120Y6350
X59690Y11430
X68580Y21590
X68580Y19050
X68580Y16510
X68580Y13970
X68580Y11430
X68580Y8890
X68580Y6350
X68580Y3810
X13970Y20320
X5080Y19050
X5080Y21590
X5080Y24130
X5080Y26670
X13970Y30480
X13970Y27940
X13970Y25400
X13970Y22860
X5080Y29210
X13970Y17780
X13970Y15240
X10160Y58420
X12700Y58420
X15240Y58420
X2540Y45720
X2540Y43180
X17780Y58420
X5080Y16510
X30480Y69850
X30480Y67310
X30480Y64770
X57150Y82550
X30480Y62230
X49530Y80010
X49530Y82550
X30480Y59690
X49530Y85090
X49530Y95250
X49530Y92710
X49530Y87630
X49530Y90170
T5
X35520Y76200
X30520Y76200
X88773Y16470
X88773Y11470
T6
X2794Y58126
X2794Y55626
X2794Y53126
T7
X4859Y71842
X4859Y66842
T8
X52070Y73660
X37719Y71247
X37719Y68707
X41910Y73660
X60960Y67310
X26670Y76200
X46990Y36830
X46990Y69850
X46990Y67310
X46990Y64770
X46990Y62230
X46990Y59690
X46990Y57150
X46990Y54610
X46990Y52070
X46990Y49530
X46990Y46990
X46990Y44450
X46990Y41910
X46990Y39370
X54610Y69850
X54610Y36830
X54610Y39370
X54610Y41910
X54610Y44450
X54610Y46990
X54610Y49530
X54610Y52070
X54610Y54610
X54610Y57150
X54610Y59690
X54610Y62230
X54610Y64770
X54610Y67310
X86360Y69850
X58420Y29210
X58420Y39370
X44450Y33020
X54610Y33020
X86360Y49530
X86360Y52070
X86360Y54610
X86360Y57150
X86360Y59690
X86360Y62230
X86360Y64770
X86360Y67310
X60960Y69850
X74930Y49530
X74930Y46990
X66040Y29210
X66040Y39370
X69850Y39370
X69850Y29210
X88900Y34290
X88900Y31750
X88900Y19050
X88900Y29210
X93853Y8509
X83693Y8509
X86360Y44450
X26670Y66040
X41910Y36830
X41910Y39370
X60960Y50800
X60960Y45720
X78740Y69850
X78740Y67310
X78740Y64770
X78740Y62230
X78740Y59690
X78740Y57150
X78740Y52070
X86360Y46990
X78740Y54610
X86360Y41910
X86360Y39370
X86360Y36830
X78740Y36830
X78740Y39370
X78740Y41910
X78740Y44450
X78740Y46990
X78740Y49530
T9
X19050Y12700
X35560Y17780
X33020Y17780
X50800Y53340
X47244Y33401
X40640Y25400
X35814Y42291
X34163Y3302
X52070Y58420
X49911Y58420
X22860Y55880
X22860Y52070
X8890Y43180
X33020Y52070
X10160Y26289
X11303Y46736
X33020Y54610
X49530Y41910
X49530Y46990
X34290Y45720
X6477Y67437
X49784Y48260
X34290Y41910
X42926Y34163
X40640Y34290
X34290Y30480
X44196Y41402
X33020Y36830
X25400Y33020
X19050Y26416
X29210Y40640
X20320Y26416
X20320Y19050
X35560Y57150
X38100Y63500
X34163Y43561
X21590Y26416
X22860Y17780
M30