G04 EAGLE Gerber RS-274X export*
G75*
%MOMM*%
%FSLAX34Y34*%
%LPD*%
%INTop Copper*%
%IPPOS*%
%AMOC8*
5,1,8,0,0,1.08239X$1,22.5*%
G01*
%ADD10C,0.000000*%
%ADD11C,1.422400*%
%ADD12R,1.350000X0.400000*%
%ADD13C,1.459600*%
%ADD14C,2.250000*%
%ADD15C,1.879600*%
%ADD16C,1.509600*%
%ADD17P,1.539592X8X112.500000*%
%ADD18P,1.539592X8X202.500000*%
%ADD19C,1.609600*%
%ADD20P,1.539592X8X292.500000*%
%ADD21C,1.422400*%
%ADD22C,0.406400*%
%ADD23C,1.058000*%


D10*
X0Y0D02*
X1000000Y0D01*
X1000000Y1000000D01*
X0Y1000000D01*
X0Y0D01*
X9525Y965200D02*
X9530Y965590D01*
X9544Y965979D01*
X9568Y966368D01*
X9601Y966756D01*
X9644Y967143D01*
X9697Y967529D01*
X9759Y967914D01*
X9830Y968297D01*
X9911Y968678D01*
X10001Y969057D01*
X10100Y969434D01*
X10209Y969808D01*
X10326Y970180D01*
X10453Y970548D01*
X10589Y970913D01*
X10733Y971275D01*
X10887Y971633D01*
X11049Y971987D01*
X11220Y972338D01*
X11399Y972683D01*
X11587Y973025D01*
X11784Y973361D01*
X11988Y973693D01*
X12200Y974020D01*
X12421Y974341D01*
X12649Y974657D01*
X12885Y974967D01*
X13128Y975271D01*
X13379Y975569D01*
X13637Y975861D01*
X13903Y976146D01*
X14175Y976425D01*
X14454Y976697D01*
X14739Y976963D01*
X15031Y977221D01*
X15329Y977472D01*
X15633Y977715D01*
X15943Y977951D01*
X16259Y978179D01*
X16580Y978400D01*
X16907Y978612D01*
X17239Y978816D01*
X17575Y979013D01*
X17917Y979201D01*
X18262Y979380D01*
X18613Y979551D01*
X18967Y979713D01*
X19325Y979867D01*
X19687Y980011D01*
X20052Y980147D01*
X20420Y980274D01*
X20792Y980391D01*
X21166Y980500D01*
X21543Y980599D01*
X21922Y980689D01*
X22303Y980770D01*
X22686Y980841D01*
X23071Y980903D01*
X23457Y980956D01*
X23844Y980999D01*
X24232Y981032D01*
X24621Y981056D01*
X25010Y981070D01*
X25400Y981075D01*
X25790Y981070D01*
X26179Y981056D01*
X26568Y981032D01*
X26956Y980999D01*
X27343Y980956D01*
X27729Y980903D01*
X28114Y980841D01*
X28497Y980770D01*
X28878Y980689D01*
X29257Y980599D01*
X29634Y980500D01*
X30008Y980391D01*
X30380Y980274D01*
X30748Y980147D01*
X31113Y980011D01*
X31475Y979867D01*
X31833Y979713D01*
X32187Y979551D01*
X32538Y979380D01*
X32883Y979201D01*
X33225Y979013D01*
X33561Y978816D01*
X33893Y978612D01*
X34220Y978400D01*
X34541Y978179D01*
X34857Y977951D01*
X35167Y977715D01*
X35471Y977472D01*
X35769Y977221D01*
X36061Y976963D01*
X36346Y976697D01*
X36625Y976425D01*
X36897Y976146D01*
X37163Y975861D01*
X37421Y975569D01*
X37672Y975271D01*
X37915Y974967D01*
X38151Y974657D01*
X38379Y974341D01*
X38600Y974020D01*
X38812Y973693D01*
X39016Y973361D01*
X39213Y973025D01*
X39401Y972683D01*
X39580Y972338D01*
X39751Y971987D01*
X39913Y971633D01*
X40067Y971275D01*
X40211Y970913D01*
X40347Y970548D01*
X40474Y970180D01*
X40591Y969808D01*
X40700Y969434D01*
X40799Y969057D01*
X40889Y968678D01*
X40970Y968297D01*
X41041Y967914D01*
X41103Y967529D01*
X41156Y967143D01*
X41199Y966756D01*
X41232Y966368D01*
X41256Y965979D01*
X41270Y965590D01*
X41275Y965200D01*
X41270Y964810D01*
X41256Y964421D01*
X41232Y964032D01*
X41199Y963644D01*
X41156Y963257D01*
X41103Y962871D01*
X41041Y962486D01*
X40970Y962103D01*
X40889Y961722D01*
X40799Y961343D01*
X40700Y960966D01*
X40591Y960592D01*
X40474Y960220D01*
X40347Y959852D01*
X40211Y959487D01*
X40067Y959125D01*
X39913Y958767D01*
X39751Y958413D01*
X39580Y958062D01*
X39401Y957717D01*
X39213Y957375D01*
X39016Y957039D01*
X38812Y956707D01*
X38600Y956380D01*
X38379Y956059D01*
X38151Y955743D01*
X37915Y955433D01*
X37672Y955129D01*
X37421Y954831D01*
X37163Y954539D01*
X36897Y954254D01*
X36625Y953975D01*
X36346Y953703D01*
X36061Y953437D01*
X35769Y953179D01*
X35471Y952928D01*
X35167Y952685D01*
X34857Y952449D01*
X34541Y952221D01*
X34220Y952000D01*
X33893Y951788D01*
X33561Y951584D01*
X33225Y951387D01*
X32883Y951199D01*
X32538Y951020D01*
X32187Y950849D01*
X31833Y950687D01*
X31475Y950533D01*
X31113Y950389D01*
X30748Y950253D01*
X30380Y950126D01*
X30008Y950009D01*
X29634Y949900D01*
X29257Y949801D01*
X28878Y949711D01*
X28497Y949630D01*
X28114Y949559D01*
X27729Y949497D01*
X27343Y949444D01*
X26956Y949401D01*
X26568Y949368D01*
X26179Y949344D01*
X25790Y949330D01*
X25400Y949325D01*
X25010Y949330D01*
X24621Y949344D01*
X24232Y949368D01*
X23844Y949401D01*
X23457Y949444D01*
X23071Y949497D01*
X22686Y949559D01*
X22303Y949630D01*
X21922Y949711D01*
X21543Y949801D01*
X21166Y949900D01*
X20792Y950009D01*
X20420Y950126D01*
X20052Y950253D01*
X19687Y950389D01*
X19325Y950533D01*
X18967Y950687D01*
X18613Y950849D01*
X18262Y951020D01*
X17917Y951199D01*
X17575Y951387D01*
X17239Y951584D01*
X16907Y951788D01*
X16580Y952000D01*
X16259Y952221D01*
X15943Y952449D01*
X15633Y952685D01*
X15329Y952928D01*
X15031Y953179D01*
X14739Y953437D01*
X14454Y953703D01*
X14175Y953975D01*
X13903Y954254D01*
X13637Y954539D01*
X13379Y954831D01*
X13128Y955129D01*
X12885Y955433D01*
X12649Y955743D01*
X12421Y956059D01*
X12200Y956380D01*
X11988Y956707D01*
X11784Y957039D01*
X11587Y957375D01*
X11399Y957717D01*
X11220Y958062D01*
X11049Y958413D01*
X10887Y958767D01*
X10733Y959125D01*
X10589Y959487D01*
X10453Y959852D01*
X10326Y960220D01*
X10209Y960592D01*
X10100Y960966D01*
X10001Y961343D01*
X9911Y961722D01*
X9830Y962103D01*
X9759Y962486D01*
X9697Y962871D01*
X9644Y963257D01*
X9601Y963644D01*
X9568Y964032D01*
X9544Y964421D01*
X9530Y964810D01*
X9525Y965200D01*
X9525Y774700D02*
X9530Y775090D01*
X9544Y775479D01*
X9568Y775868D01*
X9601Y776256D01*
X9644Y776643D01*
X9697Y777029D01*
X9759Y777414D01*
X9830Y777797D01*
X9911Y778178D01*
X10001Y778557D01*
X10100Y778934D01*
X10209Y779308D01*
X10326Y779680D01*
X10453Y780048D01*
X10589Y780413D01*
X10733Y780775D01*
X10887Y781133D01*
X11049Y781487D01*
X11220Y781838D01*
X11399Y782183D01*
X11587Y782525D01*
X11784Y782861D01*
X11988Y783193D01*
X12200Y783520D01*
X12421Y783841D01*
X12649Y784157D01*
X12885Y784467D01*
X13128Y784771D01*
X13379Y785069D01*
X13637Y785361D01*
X13903Y785646D01*
X14175Y785925D01*
X14454Y786197D01*
X14739Y786463D01*
X15031Y786721D01*
X15329Y786972D01*
X15633Y787215D01*
X15943Y787451D01*
X16259Y787679D01*
X16580Y787900D01*
X16907Y788112D01*
X17239Y788316D01*
X17575Y788513D01*
X17917Y788701D01*
X18262Y788880D01*
X18613Y789051D01*
X18967Y789213D01*
X19325Y789367D01*
X19687Y789511D01*
X20052Y789647D01*
X20420Y789774D01*
X20792Y789891D01*
X21166Y790000D01*
X21543Y790099D01*
X21922Y790189D01*
X22303Y790270D01*
X22686Y790341D01*
X23071Y790403D01*
X23457Y790456D01*
X23844Y790499D01*
X24232Y790532D01*
X24621Y790556D01*
X25010Y790570D01*
X25400Y790575D01*
X25790Y790570D01*
X26179Y790556D01*
X26568Y790532D01*
X26956Y790499D01*
X27343Y790456D01*
X27729Y790403D01*
X28114Y790341D01*
X28497Y790270D01*
X28878Y790189D01*
X29257Y790099D01*
X29634Y790000D01*
X30008Y789891D01*
X30380Y789774D01*
X30748Y789647D01*
X31113Y789511D01*
X31475Y789367D01*
X31833Y789213D01*
X32187Y789051D01*
X32538Y788880D01*
X32883Y788701D01*
X33225Y788513D01*
X33561Y788316D01*
X33893Y788112D01*
X34220Y787900D01*
X34541Y787679D01*
X34857Y787451D01*
X35167Y787215D01*
X35471Y786972D01*
X35769Y786721D01*
X36061Y786463D01*
X36346Y786197D01*
X36625Y785925D01*
X36897Y785646D01*
X37163Y785361D01*
X37421Y785069D01*
X37672Y784771D01*
X37915Y784467D01*
X38151Y784157D01*
X38379Y783841D01*
X38600Y783520D01*
X38812Y783193D01*
X39016Y782861D01*
X39213Y782525D01*
X39401Y782183D01*
X39580Y781838D01*
X39751Y781487D01*
X39913Y781133D01*
X40067Y780775D01*
X40211Y780413D01*
X40347Y780048D01*
X40474Y779680D01*
X40591Y779308D01*
X40700Y778934D01*
X40799Y778557D01*
X40889Y778178D01*
X40970Y777797D01*
X41041Y777414D01*
X41103Y777029D01*
X41156Y776643D01*
X41199Y776256D01*
X41232Y775868D01*
X41256Y775479D01*
X41270Y775090D01*
X41275Y774700D01*
X41270Y774310D01*
X41256Y773921D01*
X41232Y773532D01*
X41199Y773144D01*
X41156Y772757D01*
X41103Y772371D01*
X41041Y771986D01*
X40970Y771603D01*
X40889Y771222D01*
X40799Y770843D01*
X40700Y770466D01*
X40591Y770092D01*
X40474Y769720D01*
X40347Y769352D01*
X40211Y768987D01*
X40067Y768625D01*
X39913Y768267D01*
X39751Y767913D01*
X39580Y767562D01*
X39401Y767217D01*
X39213Y766875D01*
X39016Y766539D01*
X38812Y766207D01*
X38600Y765880D01*
X38379Y765559D01*
X38151Y765243D01*
X37915Y764933D01*
X37672Y764629D01*
X37421Y764331D01*
X37163Y764039D01*
X36897Y763754D01*
X36625Y763475D01*
X36346Y763203D01*
X36061Y762937D01*
X35769Y762679D01*
X35471Y762428D01*
X35167Y762185D01*
X34857Y761949D01*
X34541Y761721D01*
X34220Y761500D01*
X33893Y761288D01*
X33561Y761084D01*
X33225Y760887D01*
X32883Y760699D01*
X32538Y760520D01*
X32187Y760349D01*
X31833Y760187D01*
X31475Y760033D01*
X31113Y759889D01*
X30748Y759753D01*
X30380Y759626D01*
X30008Y759509D01*
X29634Y759400D01*
X29257Y759301D01*
X28878Y759211D01*
X28497Y759130D01*
X28114Y759059D01*
X27729Y758997D01*
X27343Y758944D01*
X26956Y758901D01*
X26568Y758868D01*
X26179Y758844D01*
X25790Y758830D01*
X25400Y758825D01*
X25010Y758830D01*
X24621Y758844D01*
X24232Y758868D01*
X23844Y758901D01*
X23457Y758944D01*
X23071Y758997D01*
X22686Y759059D01*
X22303Y759130D01*
X21922Y759211D01*
X21543Y759301D01*
X21166Y759400D01*
X20792Y759509D01*
X20420Y759626D01*
X20052Y759753D01*
X19687Y759889D01*
X19325Y760033D01*
X18967Y760187D01*
X18613Y760349D01*
X18262Y760520D01*
X17917Y760699D01*
X17575Y760887D01*
X17239Y761084D01*
X16907Y761288D01*
X16580Y761500D01*
X16259Y761721D01*
X15943Y761949D01*
X15633Y762185D01*
X15329Y762428D01*
X15031Y762679D01*
X14739Y762937D01*
X14454Y763203D01*
X14175Y763475D01*
X13903Y763754D01*
X13637Y764039D01*
X13379Y764331D01*
X13128Y764629D01*
X12885Y764933D01*
X12649Y765243D01*
X12421Y765559D01*
X12200Y765880D01*
X11988Y766207D01*
X11784Y766539D01*
X11587Y766875D01*
X11399Y767217D01*
X11220Y767562D01*
X11049Y767913D01*
X10887Y768267D01*
X10733Y768625D01*
X10589Y768987D01*
X10453Y769352D01*
X10326Y769720D01*
X10209Y770092D01*
X10100Y770466D01*
X10001Y770843D01*
X9911Y771222D01*
X9830Y771603D01*
X9759Y771986D01*
X9697Y772371D01*
X9644Y772757D01*
X9601Y773144D01*
X9568Y773532D01*
X9544Y773921D01*
X9530Y774310D01*
X9525Y774700D01*
X958723Y965200D02*
X958728Y965590D01*
X958742Y965979D01*
X958766Y966368D01*
X958799Y966756D01*
X958842Y967143D01*
X958895Y967529D01*
X958957Y967914D01*
X959028Y968297D01*
X959109Y968678D01*
X959199Y969057D01*
X959298Y969434D01*
X959407Y969808D01*
X959524Y970180D01*
X959651Y970548D01*
X959787Y970913D01*
X959931Y971275D01*
X960085Y971633D01*
X960247Y971987D01*
X960418Y972338D01*
X960597Y972683D01*
X960785Y973025D01*
X960982Y973361D01*
X961186Y973693D01*
X961398Y974020D01*
X961619Y974341D01*
X961847Y974657D01*
X962083Y974967D01*
X962326Y975271D01*
X962577Y975569D01*
X962835Y975861D01*
X963101Y976146D01*
X963373Y976425D01*
X963652Y976697D01*
X963937Y976963D01*
X964229Y977221D01*
X964527Y977472D01*
X964831Y977715D01*
X965141Y977951D01*
X965457Y978179D01*
X965778Y978400D01*
X966105Y978612D01*
X966437Y978816D01*
X966773Y979013D01*
X967115Y979201D01*
X967460Y979380D01*
X967811Y979551D01*
X968165Y979713D01*
X968523Y979867D01*
X968885Y980011D01*
X969250Y980147D01*
X969618Y980274D01*
X969990Y980391D01*
X970364Y980500D01*
X970741Y980599D01*
X971120Y980689D01*
X971501Y980770D01*
X971884Y980841D01*
X972269Y980903D01*
X972655Y980956D01*
X973042Y980999D01*
X973430Y981032D01*
X973819Y981056D01*
X974208Y981070D01*
X974598Y981075D01*
X974988Y981070D01*
X975377Y981056D01*
X975766Y981032D01*
X976154Y980999D01*
X976541Y980956D01*
X976927Y980903D01*
X977312Y980841D01*
X977695Y980770D01*
X978076Y980689D01*
X978455Y980599D01*
X978832Y980500D01*
X979206Y980391D01*
X979578Y980274D01*
X979946Y980147D01*
X980311Y980011D01*
X980673Y979867D01*
X981031Y979713D01*
X981385Y979551D01*
X981736Y979380D01*
X982081Y979201D01*
X982423Y979013D01*
X982759Y978816D01*
X983091Y978612D01*
X983418Y978400D01*
X983739Y978179D01*
X984055Y977951D01*
X984365Y977715D01*
X984669Y977472D01*
X984967Y977221D01*
X985259Y976963D01*
X985544Y976697D01*
X985823Y976425D01*
X986095Y976146D01*
X986361Y975861D01*
X986619Y975569D01*
X986870Y975271D01*
X987113Y974967D01*
X987349Y974657D01*
X987577Y974341D01*
X987798Y974020D01*
X988010Y973693D01*
X988214Y973361D01*
X988411Y973025D01*
X988599Y972683D01*
X988778Y972338D01*
X988949Y971987D01*
X989111Y971633D01*
X989265Y971275D01*
X989409Y970913D01*
X989545Y970548D01*
X989672Y970180D01*
X989789Y969808D01*
X989898Y969434D01*
X989997Y969057D01*
X990087Y968678D01*
X990168Y968297D01*
X990239Y967914D01*
X990301Y967529D01*
X990354Y967143D01*
X990397Y966756D01*
X990430Y966368D01*
X990454Y965979D01*
X990468Y965590D01*
X990473Y965200D01*
X990468Y964810D01*
X990454Y964421D01*
X990430Y964032D01*
X990397Y963644D01*
X990354Y963257D01*
X990301Y962871D01*
X990239Y962486D01*
X990168Y962103D01*
X990087Y961722D01*
X989997Y961343D01*
X989898Y960966D01*
X989789Y960592D01*
X989672Y960220D01*
X989545Y959852D01*
X989409Y959487D01*
X989265Y959125D01*
X989111Y958767D01*
X988949Y958413D01*
X988778Y958062D01*
X988599Y957717D01*
X988411Y957375D01*
X988214Y957039D01*
X988010Y956707D01*
X987798Y956380D01*
X987577Y956059D01*
X987349Y955743D01*
X987113Y955433D01*
X986870Y955129D01*
X986619Y954831D01*
X986361Y954539D01*
X986095Y954254D01*
X985823Y953975D01*
X985544Y953703D01*
X985259Y953437D01*
X984967Y953179D01*
X984669Y952928D01*
X984365Y952685D01*
X984055Y952449D01*
X983739Y952221D01*
X983418Y952000D01*
X983091Y951788D01*
X982759Y951584D01*
X982423Y951387D01*
X982081Y951199D01*
X981736Y951020D01*
X981385Y950849D01*
X981031Y950687D01*
X980673Y950533D01*
X980311Y950389D01*
X979946Y950253D01*
X979578Y950126D01*
X979206Y950009D01*
X978832Y949900D01*
X978455Y949801D01*
X978076Y949711D01*
X977695Y949630D01*
X977312Y949559D01*
X976927Y949497D01*
X976541Y949444D01*
X976154Y949401D01*
X975766Y949368D01*
X975377Y949344D01*
X974988Y949330D01*
X974598Y949325D01*
X974208Y949330D01*
X973819Y949344D01*
X973430Y949368D01*
X973042Y949401D01*
X972655Y949444D01*
X972269Y949497D01*
X971884Y949559D01*
X971501Y949630D01*
X971120Y949711D01*
X970741Y949801D01*
X970364Y949900D01*
X969990Y950009D01*
X969618Y950126D01*
X969250Y950253D01*
X968885Y950389D01*
X968523Y950533D01*
X968165Y950687D01*
X967811Y950849D01*
X967460Y951020D01*
X967115Y951199D01*
X966773Y951387D01*
X966437Y951584D01*
X966105Y951788D01*
X965778Y952000D01*
X965457Y952221D01*
X965141Y952449D01*
X964831Y952685D01*
X964527Y952928D01*
X964229Y953179D01*
X963937Y953437D01*
X963652Y953703D01*
X963373Y953975D01*
X963101Y954254D01*
X962835Y954539D01*
X962577Y954831D01*
X962326Y955129D01*
X962083Y955433D01*
X961847Y955743D01*
X961619Y956059D01*
X961398Y956380D01*
X961186Y956707D01*
X960982Y957039D01*
X960785Y957375D01*
X960597Y957717D01*
X960418Y958062D01*
X960247Y958413D01*
X960085Y958767D01*
X959931Y959125D01*
X959787Y959487D01*
X959651Y959852D01*
X959524Y960220D01*
X959407Y960592D01*
X959298Y960966D01*
X959199Y961343D01*
X959109Y961722D01*
X959028Y962103D01*
X958957Y962486D01*
X958895Y962871D01*
X958842Y963257D01*
X958799Y963644D01*
X958766Y964032D01*
X958742Y964421D01*
X958728Y964810D01*
X958723Y965200D01*
X958723Y774700D02*
X958728Y775090D01*
X958742Y775479D01*
X958766Y775868D01*
X958799Y776256D01*
X958842Y776643D01*
X958895Y777029D01*
X958957Y777414D01*
X959028Y777797D01*
X959109Y778178D01*
X959199Y778557D01*
X959298Y778934D01*
X959407Y779308D01*
X959524Y779680D01*
X959651Y780048D01*
X959787Y780413D01*
X959931Y780775D01*
X960085Y781133D01*
X960247Y781487D01*
X960418Y781838D01*
X960597Y782183D01*
X960785Y782525D01*
X960982Y782861D01*
X961186Y783193D01*
X961398Y783520D01*
X961619Y783841D01*
X961847Y784157D01*
X962083Y784467D01*
X962326Y784771D01*
X962577Y785069D01*
X962835Y785361D01*
X963101Y785646D01*
X963373Y785925D01*
X963652Y786197D01*
X963937Y786463D01*
X964229Y786721D01*
X964527Y786972D01*
X964831Y787215D01*
X965141Y787451D01*
X965457Y787679D01*
X965778Y787900D01*
X966105Y788112D01*
X966437Y788316D01*
X966773Y788513D01*
X967115Y788701D01*
X967460Y788880D01*
X967811Y789051D01*
X968165Y789213D01*
X968523Y789367D01*
X968885Y789511D01*
X969250Y789647D01*
X969618Y789774D01*
X969990Y789891D01*
X970364Y790000D01*
X970741Y790099D01*
X971120Y790189D01*
X971501Y790270D01*
X971884Y790341D01*
X972269Y790403D01*
X972655Y790456D01*
X973042Y790499D01*
X973430Y790532D01*
X973819Y790556D01*
X974208Y790570D01*
X974598Y790575D01*
X974988Y790570D01*
X975377Y790556D01*
X975766Y790532D01*
X976154Y790499D01*
X976541Y790456D01*
X976927Y790403D01*
X977312Y790341D01*
X977695Y790270D01*
X978076Y790189D01*
X978455Y790099D01*
X978832Y790000D01*
X979206Y789891D01*
X979578Y789774D01*
X979946Y789647D01*
X980311Y789511D01*
X980673Y789367D01*
X981031Y789213D01*
X981385Y789051D01*
X981736Y788880D01*
X982081Y788701D01*
X982423Y788513D01*
X982759Y788316D01*
X983091Y788112D01*
X983418Y787900D01*
X983739Y787679D01*
X984055Y787451D01*
X984365Y787215D01*
X984669Y786972D01*
X984967Y786721D01*
X985259Y786463D01*
X985544Y786197D01*
X985823Y785925D01*
X986095Y785646D01*
X986361Y785361D01*
X986619Y785069D01*
X986870Y784771D01*
X987113Y784467D01*
X987349Y784157D01*
X987577Y783841D01*
X987798Y783520D01*
X988010Y783193D01*
X988214Y782861D01*
X988411Y782525D01*
X988599Y782183D01*
X988778Y781838D01*
X988949Y781487D01*
X989111Y781133D01*
X989265Y780775D01*
X989409Y780413D01*
X989545Y780048D01*
X989672Y779680D01*
X989789Y779308D01*
X989898Y778934D01*
X989997Y778557D01*
X990087Y778178D01*
X990168Y777797D01*
X990239Y777414D01*
X990301Y777029D01*
X990354Y776643D01*
X990397Y776256D01*
X990430Y775868D01*
X990454Y775479D01*
X990468Y775090D01*
X990473Y774700D01*
X990468Y774310D01*
X990454Y773921D01*
X990430Y773532D01*
X990397Y773144D01*
X990354Y772757D01*
X990301Y772371D01*
X990239Y771986D01*
X990168Y771603D01*
X990087Y771222D01*
X989997Y770843D01*
X989898Y770466D01*
X989789Y770092D01*
X989672Y769720D01*
X989545Y769352D01*
X989409Y768987D01*
X989265Y768625D01*
X989111Y768267D01*
X988949Y767913D01*
X988778Y767562D01*
X988599Y767217D01*
X988411Y766875D01*
X988214Y766539D01*
X988010Y766207D01*
X987798Y765880D01*
X987577Y765559D01*
X987349Y765243D01*
X987113Y764933D01*
X986870Y764629D01*
X986619Y764331D01*
X986361Y764039D01*
X986095Y763754D01*
X985823Y763475D01*
X985544Y763203D01*
X985259Y762937D01*
X984967Y762679D01*
X984669Y762428D01*
X984365Y762185D01*
X984055Y761949D01*
X983739Y761721D01*
X983418Y761500D01*
X983091Y761288D01*
X982759Y761084D01*
X982423Y760887D01*
X982081Y760699D01*
X981736Y760520D01*
X981385Y760349D01*
X981031Y760187D01*
X980673Y760033D01*
X980311Y759889D01*
X979946Y759753D01*
X979578Y759626D01*
X979206Y759509D01*
X978832Y759400D01*
X978455Y759301D01*
X978076Y759211D01*
X977695Y759130D01*
X977312Y759059D01*
X976927Y758997D01*
X976541Y758944D01*
X976154Y758901D01*
X975766Y758868D01*
X975377Y758844D01*
X974988Y758830D01*
X974598Y758825D01*
X974208Y758830D01*
X973819Y758844D01*
X973430Y758868D01*
X973042Y758901D01*
X972655Y758944D01*
X972269Y758997D01*
X971884Y759059D01*
X971501Y759130D01*
X971120Y759211D01*
X970741Y759301D01*
X970364Y759400D01*
X969990Y759509D01*
X969618Y759626D01*
X969250Y759753D01*
X968885Y759889D01*
X968523Y760033D01*
X968165Y760187D01*
X967811Y760349D01*
X967460Y760520D01*
X967115Y760699D01*
X966773Y760887D01*
X966437Y761084D01*
X966105Y761288D01*
X965778Y761500D01*
X965457Y761721D01*
X965141Y761949D01*
X964831Y762185D01*
X964527Y762428D01*
X964229Y762679D01*
X963937Y762937D01*
X963652Y763203D01*
X963373Y763475D01*
X963101Y763754D01*
X962835Y764039D01*
X962577Y764331D01*
X962326Y764629D01*
X962083Y764933D01*
X961847Y765243D01*
X961619Y765559D01*
X961398Y765880D01*
X961186Y766207D01*
X960982Y766539D01*
X960785Y766875D01*
X960597Y767217D01*
X960418Y767562D01*
X960247Y767913D01*
X960085Y768267D01*
X959931Y768625D01*
X959787Y768987D01*
X959651Y769352D01*
X959524Y769720D01*
X959407Y770092D01*
X959298Y770466D01*
X959199Y770843D01*
X959109Y771222D01*
X959028Y771603D01*
X958957Y771986D01*
X958895Y772371D01*
X958842Y772757D01*
X958799Y773144D01*
X958766Y773532D01*
X958742Y773921D01*
X958728Y774310D01*
X958723Y774700D01*
D11*
X477012Y698500D02*
X462788Y698500D01*
X462788Y673100D02*
X477012Y673100D01*
X477012Y647700D02*
X462788Y647700D01*
X462788Y622300D02*
X477012Y622300D01*
X477012Y596900D02*
X462788Y596900D01*
X462788Y571500D02*
X477012Y571500D01*
X477012Y546100D02*
X462788Y546100D01*
X462788Y520700D02*
X477012Y520700D01*
X477012Y495300D02*
X462788Y495300D01*
X462788Y469900D02*
X477012Y469900D01*
X477012Y444500D02*
X462788Y444500D01*
X462788Y419100D02*
X477012Y419100D01*
X477012Y393700D02*
X462788Y393700D01*
X462788Y368300D02*
X477012Y368300D01*
X538988Y368300D02*
X553212Y368300D01*
X553212Y393700D02*
X538988Y393700D01*
X538988Y419100D02*
X553212Y419100D01*
X553212Y444500D02*
X538988Y444500D01*
X538988Y469900D02*
X553212Y469900D01*
X553212Y495300D02*
X538988Y495300D01*
X538988Y520700D02*
X553212Y520700D01*
X553212Y546100D02*
X538988Y546100D01*
X538988Y571500D02*
X553212Y571500D01*
X553212Y596900D02*
X538988Y596900D01*
X538988Y622300D02*
X553212Y622300D01*
X553212Y647700D02*
X538988Y647700D01*
X538988Y673100D02*
X553212Y673100D01*
X553212Y698500D02*
X538988Y698500D01*
D12*
X48590Y693420D03*
X48590Y686920D03*
X48590Y680420D03*
X48590Y706420D03*
X48590Y699920D03*
D13*
X48590Y718420D03*
X48590Y668420D03*
D14*
X21590Y728420D03*
X21590Y658420D03*
D15*
X25400Y457200D03*
X25400Y431800D03*
D16*
X27940Y581260D03*
X27940Y556260D03*
X27940Y531260D03*
D15*
X177800Y584200D03*
X152400Y584200D03*
X127000Y584200D03*
X101600Y584200D03*
D17*
X377190Y687070D03*
X377190Y712470D03*
D18*
X520700Y736600D03*
X419100Y736600D03*
D19*
X305200Y762000D03*
X355200Y762000D03*
D15*
X304800Y698500D03*
X304800Y673100D03*
X304800Y647700D03*
X304800Y622300D03*
X304800Y596900D03*
D20*
X266700Y762000D03*
X266700Y660400D03*
X609600Y698500D03*
X609600Y673100D03*
D17*
X419100Y368300D03*
X419100Y393700D03*
D21*
X609600Y508000D03*
D20*
X609600Y457200D03*
D15*
X50800Y165100D03*
X50800Y190500D03*
X50800Y215900D03*
X50800Y241300D03*
X50800Y266700D03*
X50800Y292100D03*
X139700Y304800D03*
X139700Y279400D03*
X139700Y254000D03*
X139700Y228600D03*
X139700Y203200D03*
X139700Y177800D03*
X139700Y152400D03*
D11*
X780288Y698500D02*
X794512Y698500D01*
X794512Y673100D02*
X780288Y673100D01*
X780288Y647700D02*
X794512Y647700D01*
X794512Y622300D02*
X780288Y622300D01*
X780288Y596900D02*
X794512Y596900D01*
X794512Y571500D02*
X780288Y571500D01*
X780288Y546100D02*
X794512Y546100D01*
X794512Y520700D02*
X780288Y520700D01*
X780288Y495300D02*
X794512Y495300D01*
X794512Y469900D02*
X780288Y469900D01*
X780288Y444500D02*
X794512Y444500D01*
X794512Y419100D02*
X780288Y419100D01*
X780288Y393700D02*
X794512Y393700D01*
X794512Y368300D02*
X780288Y368300D01*
X856488Y368300D02*
X870712Y368300D01*
X870712Y393700D02*
X856488Y393700D01*
X856488Y419100D02*
X870712Y419100D01*
X870712Y444500D02*
X856488Y444500D01*
X856488Y469900D02*
X870712Y469900D01*
X870712Y495300D02*
X856488Y495300D01*
X856488Y520700D02*
X870712Y520700D01*
X870712Y546100D02*
X856488Y546100D01*
X856488Y571500D02*
X870712Y571500D01*
X870712Y596900D02*
X856488Y596900D01*
X856488Y622300D02*
X870712Y622300D01*
X870712Y647700D02*
X856488Y647700D01*
X856488Y673100D02*
X870712Y673100D01*
X870712Y698500D02*
X856488Y698500D01*
D20*
X749300Y495300D03*
X749300Y469900D03*
D17*
X660400Y292100D03*
X660400Y393700D03*
D20*
X698500Y393700D03*
X698500Y292100D03*
X889000Y342900D03*
X889000Y317500D03*
D17*
X889000Y190500D03*
X889000Y292100D03*
D19*
X887730Y114700D03*
X887730Y164700D03*
D18*
X938530Y85090D03*
X836930Y85090D03*
D15*
X495300Y952500D03*
X495300Y927100D03*
X495300Y901700D03*
X495300Y876300D03*
X495300Y850900D03*
X495300Y825500D03*
X495300Y800100D03*
X571500Y800100D03*
X571500Y825500D03*
X571500Y850900D03*
X571500Y876300D03*
X571500Y901700D03*
X571500Y927100D03*
X571500Y952500D03*
X444500Y876300D03*
X444500Y901700D03*
X444500Y825500D03*
X444500Y850900D03*
X304800Y50800D03*
X304800Y76200D03*
X304800Y101600D03*
X304800Y127000D03*
X304800Y152400D03*
X304800Y177800D03*
X304800Y203200D03*
X304800Y228600D03*
X304800Y254000D03*
X304800Y279400D03*
X304800Y304800D03*
X279400Y304800D03*
X279400Y279400D03*
X279400Y254000D03*
X279400Y228600D03*
X279400Y203200D03*
X279400Y177800D03*
X279400Y152400D03*
X279400Y127000D03*
X279400Y101600D03*
X279400Y76200D03*
X279400Y50800D03*
D18*
X546100Y330200D03*
X444500Y330200D03*
D20*
X584200Y393700D03*
X584200Y292100D03*
D15*
X330200Y254000D03*
X241300Y101600D03*
X254000Y228600D03*
X749300Y673100D03*
X749300Y647700D03*
X749300Y622300D03*
X749300Y596900D03*
X749300Y571500D03*
X749300Y546100D03*
X749300Y520700D03*
X901700Y698500D03*
X901700Y673100D03*
X901700Y647700D03*
X495300Y38100D03*
X495300Y63500D03*
X495300Y88900D03*
X495300Y114300D03*
X495300Y139700D03*
X495300Y165100D03*
X495300Y190500D03*
X495300Y215900D03*
X520700Y38100D03*
X520700Y63500D03*
X520700Y88900D03*
X520700Y114300D03*
X520700Y139700D03*
X520700Y165100D03*
X520700Y190500D03*
X520700Y215900D03*
X546100Y38100D03*
X546100Y63500D03*
X546100Y88900D03*
X546100Y114300D03*
X546100Y139700D03*
X546100Y165100D03*
X546100Y190500D03*
X546100Y215900D03*
X571500Y38100D03*
X571500Y63500D03*
X571500Y88900D03*
X571500Y114300D03*
X571500Y139700D03*
X571500Y165100D03*
X571500Y190500D03*
X571500Y215900D03*
X596900Y38100D03*
X596900Y63500D03*
X596900Y88900D03*
X596900Y114300D03*
X596900Y139700D03*
X596900Y165100D03*
X596900Y190500D03*
X596900Y215900D03*
X635000Y38100D03*
X635000Y63500D03*
X635000Y88900D03*
X635000Y114300D03*
X635000Y139700D03*
X635000Y165100D03*
X635000Y190500D03*
X635000Y215900D03*
X660400Y38100D03*
X660400Y63500D03*
X660400Y88900D03*
X660400Y114300D03*
X660400Y139700D03*
X660400Y165100D03*
X660400Y190500D03*
X660400Y215900D03*
X685800Y38100D03*
X685800Y63500D03*
X685800Y88900D03*
X685800Y114300D03*
X685800Y139700D03*
X685800Y165100D03*
X685800Y190500D03*
X685800Y215900D03*
X711200Y38100D03*
X711200Y63500D03*
X711200Y88900D03*
X711200Y114300D03*
X711200Y139700D03*
X711200Y165100D03*
X711200Y190500D03*
X711200Y215900D03*
X736600Y38100D03*
X736600Y63500D03*
X736600Y88900D03*
X736600Y114300D03*
X736600Y139700D03*
X736600Y165100D03*
X736600Y190500D03*
X736600Y215900D03*
X800100Y215900D03*
X800100Y190500D03*
X800100Y165100D03*
X800100Y139700D03*
X800100Y114300D03*
X800100Y88900D03*
X800100Y63500D03*
X800100Y38100D03*
X774700Y215900D03*
X774700Y190500D03*
X774700Y165100D03*
X774700Y139700D03*
X774700Y114300D03*
X774700Y88900D03*
X774700Y63500D03*
X774700Y38100D03*
X457200Y215900D03*
X457200Y190500D03*
X457200Y165100D03*
X457200Y139700D03*
X457200Y114300D03*
X457200Y88900D03*
X457200Y63500D03*
X457200Y38100D03*
X431800Y38100D03*
X431800Y63500D03*
X431800Y88900D03*
X431800Y114300D03*
X431800Y139700D03*
X431800Y165100D03*
X431800Y190500D03*
X431800Y215900D03*
X50800Y76200D03*
X609600Y546100D03*
D22*
X96238Y649558D02*
X27940Y581260D01*
X96238Y649558D02*
X96238Y679469D01*
X69723Y705984D01*
X56016Y705984D02*
X55580Y706420D01*
X56016Y705984D02*
X69723Y705984D01*
X55580Y706420D02*
X48590Y706420D01*
X48590Y680420D02*
X58720Y680420D01*
X64770Y674370D01*
D23*
X64770Y674370D03*
D22*
X127000Y368300D02*
X127000Y317500D01*
X139700Y304800D01*
X127000Y368300D02*
X88900Y406400D01*
X50800Y406400D02*
X25400Y431800D01*
X25400Y190500D02*
X50800Y165100D01*
X25400Y190500D02*
X25400Y393700D01*
X38100Y406400D01*
X50800Y406400D01*
X88900Y406400D01*
X488188Y474088D02*
X488188Y502412D01*
X492376Y469900D02*
X495300Y469900D01*
X492376Y469900D02*
X488188Y474088D01*
X488188Y502412D02*
X469900Y520700D01*
D23*
X495300Y469900D03*
D22*
X448694Y406400D02*
X445420Y403126D01*
X448694Y406400D02*
X495300Y406400D01*
X428526Y403126D02*
X419100Y393700D01*
X428526Y403126D02*
X445420Y403126D01*
X495300Y406400D02*
X495300Y419100D01*
D23*
X495300Y419100D03*
D22*
X546100Y469900D01*
X27940Y459740D02*
X27940Y531260D01*
X27940Y459740D02*
X25400Y457200D01*
X406400Y927100D02*
X495300Y927100D01*
X76200Y596900D02*
X76200Y571500D01*
X88900Y558800D02*
X152400Y558800D01*
X152400Y584200D01*
X76200Y596900D02*
X406400Y927100D01*
X431800Y215900D02*
X431800Y190500D01*
X431800Y139700D01*
X431800Y114300D01*
X431800Y88900D01*
X431800Y63500D01*
X27940Y556260D02*
X30480Y558800D01*
X88900Y558800D01*
X76200Y571500D01*
X431800Y190500D02*
X431800Y165100D01*
X431800Y63500D02*
X431800Y38100D01*
X101600Y584200D02*
X177800Y660400D01*
X266700Y660400D01*
X279400Y673100D02*
X304800Y673100D01*
X279400Y673100D02*
X266700Y660400D01*
X304800Y673100D02*
X353060Y673100D01*
X377190Y687070D01*
X534670Y687070D01*
X546100Y698500D01*
X609600Y698500D01*
X571500Y723900D02*
X546100Y698500D01*
X571500Y723900D02*
X571500Y800100D01*
X546100Y825500D02*
X546100Y901700D01*
X546100Y825500D02*
X571500Y800100D01*
X546100Y901700D02*
X571500Y927100D01*
X609600Y698500D02*
X609600Y691278D01*
X622300Y678578D01*
X723900Y495300D02*
X749300Y495300D01*
X723900Y495300D02*
X622300Y596900D01*
X622300Y678578D01*
X660400Y393700D02*
X660400Y330200D01*
X698500Y292100D01*
X723900Y292100D01*
X749300Y266700D02*
X800100Y215900D01*
X749300Y266700D02*
X723900Y292100D01*
X803910Y85090D02*
X836930Y85090D01*
X803910Y85090D02*
X800100Y88900D01*
X439420Y347980D02*
X419100Y368300D01*
X439420Y347980D02*
X444500Y342900D01*
X444500Y330200D01*
X419100Y368300D02*
X444500Y393700D01*
X469900Y393700D01*
X439420Y347980D02*
X553720Y347980D01*
X584200Y317500D02*
X584200Y292100D01*
X584200Y317500D02*
X553720Y347980D01*
X749300Y495300D02*
X787400Y495300D01*
X800100Y495300D01*
X850900Y444500D01*
X863600Y444500D01*
X825500Y406400D01*
X825500Y292100D02*
X698500Y292100D01*
X825500Y292100D02*
X825500Y406400D01*
X800100Y215900D02*
X800100Y190500D01*
X800100Y165100D01*
X800100Y139700D01*
X800100Y114300D01*
X800100Y88900D01*
X800100Y63500D01*
X800100Y38100D01*
X609600Y266700D02*
X584200Y292100D01*
X609600Y266700D02*
X749300Y266700D01*
X394970Y712470D02*
X419100Y736600D01*
X394970Y712470D02*
X377190Y712470D01*
X938530Y97790D02*
X938530Y85090D01*
X938530Y97790D02*
X921620Y114700D01*
X887730Y114700D01*
X596900Y495300D02*
X609600Y508000D01*
X596900Y495300D02*
X546100Y495300D01*
X73660Y264160D02*
X50800Y241300D01*
X100330Y264160D02*
X101600Y262890D01*
X100330Y264160D02*
X73660Y264160D01*
X127000Y203200D02*
X139700Y203200D01*
X101600Y228600D02*
X101600Y262890D01*
X101600Y228600D02*
X127000Y203200D01*
D23*
X330200Y546100D03*
D22*
X191770Y546100D01*
D23*
X113030Y467360D03*
X101600Y262890D03*
D22*
X113030Y467360D02*
X191770Y546100D01*
X139700Y203200D02*
X50800Y114300D01*
X50800Y76200D01*
X609600Y584200D02*
X546100Y647700D01*
X609600Y584200D02*
X609600Y546100D01*
X58420Y274320D02*
X50800Y266700D01*
X58420Y274320D02*
X116840Y274320D01*
X116840Y251460D01*
X139700Y228600D01*
X156464Y346964D02*
X330200Y520700D01*
X156464Y346964D02*
X156464Y245364D01*
X139700Y228600D01*
D23*
X330200Y520700D03*
X88900Y431800D03*
D22*
X190500Y431800D01*
X228600Y469900D01*
X228600Y520700D01*
D23*
X228600Y520700D03*
X228600Y558800D03*
D22*
X241300Y571500D01*
X330200Y571500D01*
X342900Y584200D01*
X499110Y584200D01*
D23*
X499110Y584200D03*
X520700Y584200D03*
D22*
X533400Y571500D01*
X546100Y571500D01*
X554990Y435610D02*
X656590Y435610D01*
X554990Y435610D02*
X546100Y444500D01*
X656590Y435610D02*
X698500Y393700D01*
X787400Y393700D01*
X889000Y317500D02*
X889000Y292100D01*
X889000Y342900D02*
X901700Y368300D01*
X901700Y482600D01*
X863600Y520700D01*
X863600Y546100D02*
X806704Y602996D01*
X673100Y723900D02*
X571500Y825500D01*
X673100Y723900D02*
X800100Y723900D01*
X806704Y717296D01*
X806704Y602996D01*
X850900Y571500D02*
X863600Y571500D01*
X850900Y571500D02*
X812800Y609600D01*
X812800Y736600D01*
X685800Y736600D01*
X571500Y850900D01*
X571500Y876300D02*
X698500Y749300D01*
X825500Y749300D01*
X825500Y635000D01*
X863600Y596900D01*
X711200Y762000D02*
X571500Y901700D01*
X711200Y762000D02*
X927100Y762000D01*
X927100Y622300D01*
X863600Y622300D01*
X495300Y901700D02*
X444500Y901700D01*
X444500Y876300D02*
X495300Y876300D01*
X495300Y850900D02*
X444500Y850900D01*
X444500Y825500D02*
X495300Y825500D01*
X546100Y330200D02*
X457200Y241300D01*
X419100Y241300D01*
X419100Y76200D01*
X304800Y76200D01*
X546100Y393700D02*
X584200Y393700D01*
D23*
X341630Y33020D03*
D22*
X340360Y31750D01*
X190500Y31750D01*
X190500Y76200D01*
X279400Y76200D01*
X355600Y127000D02*
X381000Y152400D01*
X355600Y127000D02*
X304800Y127000D01*
X381000Y457200D02*
X469900Y546100D01*
X381000Y457200D02*
X381000Y152400D01*
X313690Y177800D02*
X358140Y222250D01*
X313690Y177800D02*
X304800Y177800D01*
X358140Y222250D02*
X358140Y422910D01*
D23*
X358140Y422910D03*
D22*
X355600Y177800D02*
X330200Y177800D01*
D23*
X406400Y254000D03*
D22*
X406400Y267970D02*
X472440Y334010D01*
X406400Y267970D02*
X406400Y254000D01*
D23*
X472440Y334010D03*
X508000Y533400D03*
D22*
X509270Y534670D02*
X509270Y647700D01*
X509270Y534670D02*
X508000Y533400D01*
X509270Y647700D02*
X469900Y647700D01*
D23*
X330200Y177800D03*
X355600Y177800D03*
D22*
X279400Y127000D02*
X190500Y127000D01*
D23*
X190500Y127000D03*
X190500Y264160D03*
D22*
X190500Y317500D01*
X444500Y571500D01*
X469900Y571500D01*
X279400Y177800D02*
X228600Y177800D01*
D23*
X228600Y177800D03*
X215900Y264160D03*
D22*
X215900Y316230D02*
X335280Y435610D01*
X215900Y316230D02*
X215900Y264160D01*
X335280Y435610D02*
X341630Y435610D01*
D23*
X341630Y435610D03*
D22*
X419100Y673100D02*
X469900Y673100D01*
X419100Y673100D02*
X381000Y635000D01*
D23*
X381000Y635000D03*
X355600Y571500D03*
D22*
X355600Y520700D01*
X173990Y339090D01*
X173990Y203200D01*
X279400Y203200D01*
X304800Y622300D02*
X469900Y622300D01*
X279400Y152400D02*
X238760Y152400D01*
X203200Y187960D01*
X203200Y190500D01*
D23*
X203200Y190500D03*
X203200Y264160D03*
D22*
X201930Y265430D02*
X201930Y318770D01*
X201930Y265430D02*
X203200Y264160D01*
X201930Y318770D02*
X289560Y406400D01*
X292100Y406400D01*
D23*
X292100Y406400D03*
D22*
X304800Y596900D02*
X469900Y596900D01*
X368300Y165100D02*
X355600Y152400D01*
X304800Y152400D01*
X368300Y431800D02*
X342900Y457200D01*
X368300Y431800D02*
X368300Y165100D01*
D23*
X342900Y457200D03*
D22*
X254000Y330200D02*
X254000Y279400D01*
D23*
X254000Y330200D03*
D22*
X254000Y279400D02*
X279400Y254000D01*
X279400Y304800D02*
X279400Y317500D01*
X330200Y368300D01*
D23*
X330200Y368300D03*
X441960Y414020D03*
D22*
X441960Y414672D02*
X457818Y430530D01*
X441960Y414672D02*
X441960Y414020D01*
X539098Y520700D02*
X546100Y520700D01*
X539098Y520700D02*
X526796Y508398D01*
X479442Y430530D02*
X457818Y430530D01*
X479442Y430530D02*
X526796Y477884D01*
X526796Y508398D01*
X317500Y279400D02*
X304800Y279400D01*
X317500Y279400D02*
X342900Y304800D01*
D23*
X342900Y304800D03*
X406400Y342900D03*
D22*
X407670Y341630D02*
X429260Y341630D01*
X407670Y341630D02*
X406400Y342900D01*
D23*
X429260Y341630D03*
D22*
X342900Y342900D02*
X304800Y304800D01*
X342900Y342900D02*
X342900Y419100D01*
D23*
X342900Y419100D03*
X497840Y482600D03*
D22*
X497840Y497840D01*
X546100Y546100D01*
X393700Y139700D02*
X355600Y101600D01*
X304800Y101600D01*
X393700Y139700D02*
X393700Y419100D01*
X431800Y419100D01*
X457200Y444500D01*
X469900Y444500D01*
X330200Y254000D02*
X304800Y254000D01*
X279400Y101600D02*
X241300Y101600D01*
X254000Y228600D02*
X279400Y228600D01*
X749300Y673100D02*
X787400Y673100D01*
X787400Y647700D02*
X749300Y647700D01*
X749300Y622300D02*
X787400Y622300D01*
X787400Y596900D02*
X749300Y596900D01*
X749300Y571500D02*
X787400Y571500D01*
X787400Y546100D02*
X749300Y546100D01*
X749300Y520700D02*
X787400Y520700D01*
X863600Y698500D02*
X901700Y698500D01*
X901700Y673100D02*
X863600Y673100D01*
X863600Y647700D02*
X901700Y647700D01*
X520700Y215900D02*
X495300Y215900D01*
X520700Y215900D02*
X546100Y215900D01*
X571500Y215900D01*
X596900Y215900D01*
X596900Y190500D02*
X571500Y190500D01*
X546100Y190500D01*
X520700Y190500D01*
X495300Y190500D01*
X495300Y165100D02*
X520700Y165100D01*
X546100Y165100D01*
X571500Y165100D01*
X596900Y165100D01*
X596900Y139700D02*
X571500Y139700D01*
X546100Y139700D01*
X520700Y139700D02*
X495300Y139700D01*
X520700Y139700D02*
X546100Y139700D01*
X520700Y114300D02*
X495300Y114300D01*
X520700Y114300D02*
X546100Y114300D01*
X571500Y114300D01*
X596900Y114300D01*
X596900Y88900D02*
X571500Y88900D01*
X546100Y88900D01*
X520700Y88900D01*
X495300Y88900D01*
X495300Y63500D02*
X520700Y63500D01*
X546100Y63500D01*
X571500Y63500D01*
X596900Y63500D01*
X520700Y38100D02*
X495300Y38100D01*
X520700Y38100D02*
X546100Y38100D01*
X571500Y38100D01*
X596900Y38100D01*
X635000Y215900D02*
X660400Y215900D01*
X685800Y215900D01*
X711200Y215900D01*
X736600Y215900D01*
X736600Y190500D02*
X711200Y190500D01*
X685800Y190500D01*
X660400Y190500D02*
X635000Y190500D01*
X660400Y190500D02*
X685800Y190500D01*
X660400Y165100D02*
X635000Y165100D01*
X660400Y165100D02*
X685800Y165100D01*
X711200Y165100D01*
X736600Y165100D01*
X736600Y139700D02*
X711200Y139700D01*
X685800Y139700D01*
X660400Y139700D01*
X635000Y139700D01*
X635000Y114300D02*
X660400Y114300D01*
X685800Y114300D01*
X711200Y114300D01*
X736600Y114300D01*
X736600Y88900D02*
X711200Y88900D01*
X685800Y88900D01*
X660400Y88900D01*
X635000Y88900D01*
X635000Y63500D02*
X660400Y63500D01*
X685800Y63500D01*
X711200Y63500D01*
X736600Y63500D01*
X736600Y38100D02*
X711200Y38100D01*
X685800Y38100D01*
X660400Y38100D01*
X635000Y38100D01*
X304800Y761600D02*
X305200Y762000D01*
X304800Y761600D02*
X304800Y698500D01*
X305200Y762000D02*
X266700Y762000D01*
X304800Y698500D02*
X469900Y698500D01*
M02*
